<svg width="205" height="41" viewBox="0 0 205 41" fill="none" xmlns="http://www.w3.org/2000/svg">
<path d="M14.0781 25.0938C14.0781 24.6562 14.0104 24.2656 13.875 23.9219C13.75 23.5677 13.5156 23.25 13.1719 22.9688C12.8385 22.6771 12.3646 22.3958 11.75 22.125C11.1458 21.8438 10.3646 21.5521 9.40625 21.25C8.34375 20.9167 7.35417 20.5417 6.4375 20.125C5.52083 19.7083 4.71354 19.224 4.01562 18.6719C3.32812 18.1198 2.79167 17.4844 2.40625 16.7656C2.02083 16.0365 1.82812 15.1927 1.82812 14.2344C1.82812 13.2969 2.02604 12.4427 2.42188 11.6719C2.82812 10.901 3.40104 10.2396 4.14062 9.6875C4.88021 9.125 5.75 8.69271 6.75 8.39062C7.76042 8.08854 8.875 7.9375 10.0938 7.9375C11.7812 7.9375 13.2396 8.24479 14.4688 8.85938C15.7083 9.47396 16.6667 10.3073 17.3438 11.3594C18.0208 12.4115 18.3594 13.5938 18.3594 14.9062H14.0781C14.0781 14.1979 13.9271 13.5729 13.625 13.0312C13.3333 12.4896 12.8854 12.0625 12.2812 11.75C11.6875 11.4375 10.9375 11.2812 10.0312 11.2812C9.15625 11.2812 8.42708 11.4115 7.84375 11.6719C7.27083 11.9323 6.83854 12.2865 6.54688 12.7344C6.26562 13.1823 6.125 13.6823 6.125 14.2344C6.125 14.651 6.22396 15.026 6.42188 15.3594C6.61979 15.6823 6.91667 15.9896 7.3125 16.2812C7.70833 16.5625 8.19792 16.8281 8.78125 17.0781C9.375 17.3177 10.0625 17.5573 10.8438 17.7969C12.0938 18.1719 13.1875 18.5885 14.125 19.0469C15.0729 19.5052 15.8594 20.026 16.4844 20.6094C17.1198 21.1927 17.5938 21.849 17.9062 22.5781C18.2292 23.3073 18.3906 24.1354 18.3906 25.0625C18.3906 26.0417 18.1979 26.9167 17.8125 27.6875C17.4271 28.4583 16.875 29.1146 16.1562 29.6562C15.4375 30.1979 14.5729 30.6094 13.5625 30.8906C12.5625 31.1719 11.4427 31.3125 10.2031 31.3125C9.09896 31.3125 8.00521 31.1667 6.92188 30.875C5.84896 30.5729 4.875 30.125 4 29.5312C3.125 28.9271 2.42708 28.1667 1.90625 27.25C1.38542 26.3229 1.125 25.2396 1.125 24H5.4375C5.4375 24.7188 5.55208 25.3333 5.78125 25.8438C6.02083 26.3438 6.35417 26.7552 6.78125 27.0781C7.21875 27.3906 7.72917 27.6198 8.3125 27.7656C8.89583 27.9115 9.52604 27.9844 10.2031 27.9844C11.0781 27.9844 11.7969 27.8646 12.3594 27.625C12.9323 27.375 13.3594 27.0312 13.6406 26.5938C13.9323 26.1562 14.0781 25.6562 14.0781 25.0938ZM25.5 17.5625V31H21.375V14.0938H25.2656L25.5 17.5625ZM24.8906 21.9375H23.625C23.625 20.7604 23.7656 19.6771 24.0469 18.6875C24.3385 17.6979 24.7656 16.8385 25.3281 16.1094C25.8906 15.3698 26.5833 14.7969 27.4062 14.3906C28.2396 13.9844 29.2031 13.7812 30.2969 13.7812C31.0573 13.7812 31.7552 13.8958 32.3906 14.125C33.026 14.3438 33.5729 14.6927 34.0312 15.1719C34.5 15.6406 34.8594 16.2552 35.1094 17.0156C35.3594 17.7656 35.4844 18.6667 35.4844 19.7188V31H31.3594V20.1406C31.3594 19.349 31.2448 18.7292 31.0156 18.2812C30.7969 17.8333 30.4792 17.5208 30.0625 17.3438C29.6458 17.1562 29.1458 17.0625 28.5625 17.0625C27.9167 17.0625 27.3594 17.1927 26.8906 17.4531C26.4323 17.7031 26.0521 18.0521 25.75 18.5C25.4583 18.9479 25.2396 19.4635 25.0938 20.0469C24.9583 20.6302 24.8906 21.2604 24.8906 21.9375ZM35.1719 21.1719L33.4688 21.4844C33.4792 20.4219 33.625 19.4271 33.9062 18.5C34.1875 17.5625 34.599 16.7448 35.1406 16.0469C35.6927 15.3385 36.375 14.7865 37.1875 14.3906C38.0104 13.9844 38.9583 13.7812 40.0312 13.7812C40.8646 13.7812 41.6146 13.901 42.2812 14.1406C42.9583 14.3698 43.5365 14.7396 44.0156 15.25C44.4948 15.75 44.8594 16.401 45.1094 17.2031C45.3698 18.0052 45.5 18.9844 45.5 20.1406V31H41.3438V20.125C41.3438 19.3021 41.2292 18.6719 41 18.2344C40.7812 17.7969 40.4635 17.4948 40.0469 17.3281C39.6302 17.151 39.1406 17.0625 38.5781 17.0625C38.0052 17.0625 37.5052 17.1719 37.0781 17.3906C36.6615 17.599 36.3073 17.8906 36.0156 18.2656C35.7344 18.6406 35.5208 19.0781 35.375 19.5781C35.2396 20.0677 35.1719 20.599 35.1719 21.1719ZM58.5156 27.4062V19.6094C58.5156 19.0365 58.4167 18.5417 58.2188 18.125C58.0208 17.7083 57.7188 17.3854 57.3125 17.1562C56.9062 16.9271 56.3906 16.8125 55.7656 16.8125C55.2135 16.8125 54.7292 16.9062 54.3125 17.0938C53.9062 17.2812 53.5938 17.5469 53.375 17.8906C53.1562 18.224 53.0469 18.6094 53.0469 19.0469H48.9062C48.9062 18.349 49.0729 17.6875 49.4062 17.0625C49.7396 16.4271 50.2135 15.8646 50.8281 15.375C51.4531 14.875 52.1979 14.4844 53.0625 14.2031C53.9375 13.9219 54.9167 13.7812 56 13.7812C57.2812 13.7812 58.4219 14 59.4219 14.4375C60.4323 14.8646 61.224 15.5104 61.7969 16.375C62.3802 17.2396 62.6719 18.3281 62.6719 19.6406V27.0156C62.6719 27.8594 62.724 28.5833 62.8281 29.1875C62.9427 29.7812 63.1094 30.2969 63.3281 30.7344V31H59.125C58.9271 30.5729 58.776 30.0312 58.6719 29.375C58.5677 28.7083 58.5156 28.0521 58.5156 27.4062ZM59.0938 20.7031L59.125 23.1562H56.5156C55.8698 23.1562 55.3021 23.224 54.8125 23.3594C54.3229 23.4844 53.9219 23.6719 53.6094 23.9219C53.2969 24.1615 53.0625 24.4531 52.9062 24.7969C52.75 25.1302 52.6719 25.5104 52.6719 25.9375C52.6719 26.3542 52.7656 26.7292 52.9531 27.0625C53.151 27.3958 53.4323 27.6615 53.7969 27.8594C54.1719 28.0469 54.6094 28.1406 55.1094 28.1406C55.8385 28.1406 56.474 27.9948 57.0156 27.7031C57.5573 27.401 57.9792 27.0365 58.2812 26.6094C58.5833 26.1823 58.7448 25.776 58.7656 25.3906L59.9531 27.1719C59.8073 27.599 59.5885 28.0521 59.2969 28.5312C59.0052 29.0104 58.6302 29.4583 58.1719 29.875C57.7135 30.2917 57.1615 30.6354 56.5156 30.9062C55.8698 31.1771 55.1198 31.3125 54.2656 31.3125C53.1719 31.3125 52.1927 31.0938 51.3281 30.6562C50.4635 30.2188 49.7812 29.6198 49.2812 28.8594C48.7812 28.099 48.5312 27.2344 48.5312 26.2656C48.5312 25.3698 48.6979 24.5781 49.0312 23.8906C49.3646 23.2031 49.8594 22.625 50.5156 22.1562C51.1719 21.6771 51.9844 21.3177 52.9531 21.0781C53.9323 20.8281 55.0521 20.7031 56.3125 20.7031H59.0938ZM70.5156 17.5469V31H66.3906V14.0938H70.2969L70.5156 17.5469ZM75.6562 13.9844L75.5938 17.8281C75.3646 17.7865 75.1042 17.7552 74.8125 17.7344C74.5312 17.7135 74.2656 17.7031 74.0156 17.7031C73.3802 17.7031 72.8229 17.7917 72.3438 17.9688C71.8646 18.1354 71.4635 18.3802 71.1406 18.7031C70.8281 19.026 70.5885 19.4219 70.4219 19.8906C70.2552 20.349 70.1615 20.8698 70.1406 21.4531L69.25 21.3438C69.25 20.2708 69.3594 19.276 69.5781 18.3594C69.7969 17.4427 70.1146 16.6406 70.5312 15.9531C70.9479 15.2656 71.4688 14.7344 72.0938 14.3594C72.7292 13.974 73.4583 13.7812 74.2812 13.7812C74.5104 13.7812 74.7552 13.8021 75.0156 13.8438C75.2865 13.875 75.5 13.9219 75.6562 13.9844ZM86.7031 14.0938V17.0625H77.0156V14.0938H86.7031ZM79.6094 9.9375H83.75V26.125C83.75 26.625 83.8177 27.0104 83.9531 27.2812C84.0885 27.5521 84.2917 27.7344 84.5625 27.8281C84.8333 27.9219 85.1562 27.9688 85.5312 27.9688C85.8021 27.9688 86.0521 27.9531 86.2812 27.9219C86.5104 27.8906 86.7031 27.8594 86.8594 27.8281L86.875 30.9219C86.5312 31.0365 86.1406 31.1302 85.7031 31.2031C85.276 31.276 84.7917 31.3125 84.25 31.3125C83.3229 31.3125 82.5104 31.1562 81.8125 30.8438C81.1146 30.5208 80.5729 30.0052 80.1875 29.2969C79.8021 28.5781 79.6094 27.6302 79.6094 26.4531V9.9375Z" fill="#4682B4"/>
<path d="M97.888 32.256C96.1813 32.256 94.5493 32 92.992 31.488C91.4347 30.9547 90.208 30.272 89.312 29.44L90.496 26.944C91.3493 27.6907 92.4373 28.3093 93.76 28.8C95.0827 29.2907 96.4587 29.536 97.888 29.536C99.1893 29.536 100.245 29.3867 101.056 29.088C101.867 28.7893 102.464 28.384 102.848 27.872C103.232 27.3387 103.424 26.7413 103.424 26.08C103.424 25.312 103.168 24.6933 102.656 24.224C102.165 23.7547 101.515 23.3813 100.704 23.104C99.9147 22.8053 99.04 22.5493 98.08 22.336C97.12 22.1227 96.1493 21.8773 95.168 21.6C94.208 21.3013 93.3227 20.928 92.512 20.48C91.7227 20.032 91.0827 19.4347 90.592 18.688C90.1013 17.92 89.856 16.9387 89.856 15.744C89.856 14.592 90.1547 13.536 90.752 12.576C91.3707 11.5947 92.3093 10.816 93.568 10.24C94.848 9.64267 96.4693 9.344 98.432 9.344C99.7333 9.344 101.024 9.51467 102.304 9.856C103.584 10.1973 104.693 10.688 105.632 11.328L104.576 13.888C103.616 13.248 102.603 12.7893 101.536 12.512C100.469 12.2133 99.4347 12.064 98.432 12.064C97.1733 12.064 96.1387 12.224 95.328 12.544C94.5173 12.864 93.92 13.2907 93.536 13.824C93.1733 14.3573 92.992 14.9547 92.992 15.616C92.992 16.4053 93.2373 17.0347 93.728 17.504C94.24 17.9733 94.8907 18.3467 95.68 18.624C96.4907 18.9013 97.376 19.1573 98.336 19.392C99.296 19.6053 100.256 19.8507 101.216 20.128C102.197 20.4053 103.083 20.768 103.872 21.216C104.683 21.664 105.333 22.2613 105.824 23.008C106.315 23.7547 106.56 24.7147 106.56 25.888C106.56 27.0187 106.251 28.0747 105.632 29.056C105.013 30.016 104.053 30.7947 102.752 31.392C101.472 31.968 99.8507 32.256 97.888 32.256ZM118.051 32.192C116.344 32.192 114.83 31.8187 113.507 31.072C112.184 30.3253 111.139 29.3013 110.371 28C109.603 26.6773 109.219 25.184 109.219 23.52C109.219 21.8347 109.603 20.3413 110.371 19.04C111.139 17.7387 112.184 16.7253 113.507 16C114.83 15.2533 116.344 14.88 118.051 14.88C119.736 14.88 121.24 15.2533 122.563 16C123.907 16.7253 124.952 17.7387 125.699 19.04C126.467 20.32 126.851 21.8133 126.851 23.52C126.851 25.2053 126.467 26.6987 125.699 28C124.952 29.3013 123.907 30.3253 122.563 31.072C121.24 31.8187 119.736 32.192 118.051 32.192ZM118.051 29.504C119.139 29.504 120.11 29.2587 120.963 28.768C121.838 28.2773 122.52 27.584 123.011 26.688C123.502 25.7707 123.747 24.7147 123.747 23.52C123.747 22.304 123.502 21.2587 123.011 20.384C122.52 19.488 121.838 18.7947 120.963 18.304C120.11 17.8133 119.139 17.568 118.051 17.568C116.963 17.568 115.992 17.8133 115.139 18.304C114.286 18.7947 113.603 19.488 113.091 20.384C112.579 21.2587 112.323 22.304 112.323 23.52C112.323 24.7147 112.579 25.7707 113.091 26.688C113.603 27.584 114.286 28.2773 115.139 28.768C115.992 29.2587 116.963 29.504 118.051 29.504ZM138.492 32.192C136.764 32.192 135.217 31.8187 133.852 31.072C132.508 30.3253 131.452 29.3013 130.684 28C129.916 26.6987 129.532 25.2053 129.532 23.52C129.532 21.8347 129.916 20.3413 130.684 19.04C131.452 17.7387 132.508 16.7253 133.852 16C135.217 15.2533 136.764 14.88 138.492 14.88C140.028 14.88 141.393 15.1893 142.588 15.808C143.804 16.4053 144.742 17.3013 145.404 18.496L143.068 20C142.513 19.168 141.83 18.56 141.02 18.176C140.23 17.7707 139.377 17.568 138.46 17.568C137.35 17.568 136.358 17.8133 135.484 18.304C134.609 18.7947 133.916 19.488 133.404 20.384C132.892 21.2587 132.636 22.304 132.636 23.52C132.636 24.736 132.892 25.792 133.404 26.688C133.916 27.584 134.609 28.2773 135.484 28.768C136.358 29.2587 137.35 29.504 138.46 29.504C139.377 29.504 140.23 29.312 141.02 28.928C141.83 28.5227 142.513 27.904 143.068 27.072L145.404 28.544C144.742 29.7173 143.804 30.624 142.588 31.264C141.393 31.8827 140.028 32.192 138.492 32.192ZM151.658 27.904L151.722 23.968L161.482 15.04H165.194L157.706 22.4L156.042 23.808L151.658 27.904ZM149.162 32V8.256H152.234V32H149.162ZM162.122 32L155.466 23.744L157.45 21.28L165.898 32H162.122Z" fill="#696969"/>
<path d="M190.929 0.00681094C198.255 0.445961 199.528 0.0396446 200.857 0.00681094C202.191 -0.0260227 202.13 0.577296 202.13 1.27912L202.31 17.8519C202.31 18.1228 202.364 18.4306 202.45 18.763L199.236 29.0154C198.699 29.2821 198.424 29.4627 198.14 29.6761C197.689 30.0127 188.783 38.2786 187.543 39.4852C186.304 40.6877 182.081 42.391 179.314 39.0337C176.946 36.1608 178.309 32.4342 179.314 31.2563C180.32 30.0784 189.23 20.3555 189.797 18.6276C190.26 17.2076 189.784 5.10013 189.661 1.31195C189.636 0.597817 189.558 -0.0752732 190.929 0.00681094V0.00681094Z" fill="#C9E3E6"/>
<path d="M204.116 24.5705C204.305 21.9356 202.671 19.9574 202.351 18.3116C201.062 19.3253 198.506 20.9095 196.872 21.7345C196.314 22.0177 196.137 22.7154 196.355 23.3064C196.913 24.8332 198.062 27.4188 199.031 29.118C199.031 29.118 199.667 28.7199 200.718 28.3505C201.768 27.977 203.944 26.9961 204.116 24.5705V24.5705ZM178.559 32.5532C177.861 34.2318 177.533 36.8708 179.314 39.0296C181.477 41.6522 184.527 41.1884 186.349 40.2855C186.349 40.2855 186.222 38.0816 183.964 35.4138C181.707 32.742 178.559 32.5532 178.559 32.5532V32.5532Z" fill="#5FB2DE"/>
<path d="M195.243 6.07693C192.673 6.07693 190.773 5.83479 189.817 5.68293L189.735 3.58158C189.788 3.59389 194.824 4.71434 202.15 3.44614L202.171 5.51055C199.556 5.93329 197.204 6.07693 195.243 6.07693V6.07693ZM195.243 9.86512C192.76 9.86512 190.896 9.63939 189.911 9.48343L189.854 7.42722C191.065 7.64064 195.85 8.33425 202.187 7.23432L202.207 9.29464C199.581 9.72147 197.217 9.86512 195.243 9.86512Z" fill="#F44336"/>
</svg>
