<svg width="210" height="52" viewBox="0 0 210 52" fill="none" xmlns="http://www.w3.org/2000/svg">
<path d="M14.0781 31.0938C14.0781 30.6562 14.0104 30.2656 13.875 29.9219C13.75 29.5677 13.5156 29.25 13.1719 28.9688C12.8385 28.6771 12.3646 28.3958 11.75 28.125C11.1458 27.8438 10.3646 27.5521 9.40625 27.25C8.34375 26.9167 7.35417 26.5417 6.4375 26.125C5.52083 25.7083 4.71354 25.224 4.01562 24.6719C3.32812 24.1198 2.79167 23.4844 2.40625 22.7656C2.02083 22.0365 1.82812 21.1927 1.82812 20.2344C1.82812 19.2969 2.02604 18.4427 2.42188 17.6719C2.82812 16.901 3.40104 16.2396 4.14062 15.6875C4.88021 15.125 5.75 14.6927 6.75 14.3906C7.76042 14.0885 8.875 13.9375 10.0938 13.9375C11.7812 13.9375 13.2396 14.2448 14.4688 14.8594C15.7083 15.474 16.6667 16.3073 17.3438 17.3594C18.0208 18.4115 18.3594 19.5938 18.3594 20.9062H14.0781C14.0781 20.1979 13.9271 19.5729 13.625 19.0312C13.3333 18.4896 12.8854 18.0625 12.2812 17.75C11.6875 17.4375 10.9375 17.2812 10.0312 17.2812C9.15625 17.2812 8.42708 17.4115 7.84375 17.6719C7.27083 17.9323 6.83854 18.2865 6.54688 18.7344C6.26562 19.1823 6.125 19.6823 6.125 20.2344C6.125 20.651 6.22396 21.026 6.42188 21.3594C6.61979 21.6823 6.91667 21.9896 7.3125 22.2812C7.70833 22.5625 8.19792 22.8281 8.78125 23.0781C9.375 23.3177 10.0625 23.5573 10.8438 23.7969C12.0938 24.1719 13.1875 24.5885 14.125 25.0469C15.0729 25.5052 15.8594 26.026 16.4844 26.6094C17.1198 27.1927 17.5938 27.849 17.9062 28.5781C18.2292 29.3073 18.3906 30.1354 18.3906 31.0625C18.3906 32.0417 18.1979 32.9167 17.8125 33.6875C17.4271 34.4583 16.875 35.1146 16.1562 35.6562C15.4375 36.1979 14.5729 36.6094 13.5625 36.8906C12.5625 37.1719 11.4427 37.3125 10.2031 37.3125C9.09896 37.3125 8.00521 37.1667 6.92188 36.875C5.84896 36.5729 4.875 36.125 4 35.5312C3.125 34.9271 2.42708 34.1667 1.90625 33.25C1.38542 32.3229 1.125 31.2396 1.125 30H5.4375C5.4375 30.7188 5.55208 31.3333 5.78125 31.8438C6.02083 32.3438 6.35417 32.7552 6.78125 33.0781C7.21875 33.3906 7.72917 33.6198 8.3125 33.7656C8.89583 33.9115 9.52604 33.9844 10.2031 33.9844C11.0781 33.9844 11.7969 33.8646 12.3594 33.625C12.9323 33.375 13.3594 33.0312 13.6406 32.5938C13.9323 32.1562 14.0781 31.6562 14.0781 31.0938ZM25.5 23.5625V37H21.375V20.0938H25.2656L25.5 23.5625ZM24.8906 27.9375H23.625C23.625 26.7604 23.7656 25.6771 24.0469 24.6875C24.3385 23.6979 24.7656 22.8385 25.3281 22.1094C25.8906 21.3698 26.5833 20.7969 27.4062 20.3906C28.2396 19.9844 29.2031 19.7812 30.2969 19.7812C31.0573 19.7812 31.7552 19.8958 32.3906 20.125C33.026 20.3438 33.5729 20.6927 34.0312 21.1719C34.5 21.6406 34.8594 22.2552 35.1094 23.0156C35.3594 23.7656 35.4844 24.6667 35.4844 25.7188V37H31.3594V26.1406C31.3594 25.349 31.2448 24.7292 31.0156 24.2812C30.7969 23.8333 30.4792 23.5208 30.0625 23.3438C29.6458 23.1562 29.1458 23.0625 28.5625 23.0625C27.9167 23.0625 27.3594 23.1927 26.8906 23.4531C26.4323 23.7031 26.0521 24.0521 25.75 24.5C25.4583 24.9479 25.2396 25.4635 25.0938 26.0469C24.9583 26.6302 24.8906 27.2604 24.8906 27.9375ZM35.1719 27.1719L33.4688 27.4844C33.4792 26.4219 33.625 25.4271 33.9062 24.5C34.1875 23.5625 34.599 22.7448 35.1406 22.0469C35.6927 21.3385 36.375 20.7865 37.1875 20.3906C38.0104 19.9844 38.9583 19.7812 40.0312 19.7812C40.8646 19.7812 41.6146 19.901 42.2812 20.1406C42.9583 20.3698 43.5365 20.7396 44.0156 21.25C44.4948 21.75 44.8594 22.401 45.1094 23.2031C45.3698 24.0052 45.5 24.9844 45.5 26.1406V37H41.3438V26.125C41.3438 25.3021 41.2292 24.6719 41 24.2344C40.7812 23.7969 40.4635 23.4948 40.0469 23.3281C39.6302 23.151 39.1406 23.0625 38.5781 23.0625C38.0052 23.0625 37.5052 23.1719 37.0781 23.3906C36.6615 23.599 36.3073 23.8906 36.0156 24.2656C35.7344 24.6406 35.5208 25.0781 35.375 25.5781C35.2396 26.0677 35.1719 26.599 35.1719 27.1719ZM58.5156 33.4062V25.6094C58.5156 25.0365 58.4167 24.5417 58.2188 24.125C58.0208 23.7083 57.7188 23.3854 57.3125 23.1562C56.9062 22.9271 56.3906 22.8125 55.7656 22.8125C55.2135 22.8125 54.7292 22.9062 54.3125 23.0938C53.9062 23.2812 53.5938 23.5469 53.375 23.8906C53.1562 24.224 53.0469 24.6094 53.0469 25.0469H48.9062C48.9062 24.349 49.0729 23.6875 49.4062 23.0625C49.7396 22.4271 50.2135 21.8646 50.8281 21.375C51.4531 20.875 52.1979 20.4844 53.0625 20.2031C53.9375 19.9219 54.9167 19.7812 56 19.7812C57.2812 19.7812 58.4219 20 59.4219 20.4375C60.4323 20.8646 61.224 21.5104 61.7969 22.375C62.3802 23.2396 62.6719 24.3281 62.6719 25.6406V33.0156C62.6719 33.8594 62.724 34.5833 62.8281 35.1875C62.9427 35.7812 63.1094 36.2969 63.3281 36.7344V37H59.125C58.9271 36.5729 58.776 36.0312 58.6719 35.375C58.5677 34.7083 58.5156 34.0521 58.5156 33.4062ZM59.0938 26.7031L59.125 29.1562H56.5156C55.8698 29.1562 55.3021 29.224 54.8125 29.3594C54.3229 29.4844 53.9219 29.6719 53.6094 29.9219C53.2969 30.1615 53.0625 30.4531 52.9062 30.7969C52.75 31.1302 52.6719 31.5104 52.6719 31.9375C52.6719 32.3542 52.7656 32.7292 52.9531 33.0625C53.151 33.3958 53.4323 33.6615 53.7969 33.8594C54.1719 34.0469 54.6094 34.1406 55.1094 34.1406C55.8385 34.1406 56.474 33.9948 57.0156 33.7031C57.5573 33.401 57.9792 33.0365 58.2812 32.6094C58.5833 32.1823 58.7448 31.776 58.7656 31.3906L59.9531 33.1719C59.8073 33.599 59.5885 34.0521 59.2969 34.5312C59.0052 35.0104 58.6302 35.4583 58.1719 35.875C57.7135 36.2917 57.1615 36.6354 56.5156 36.9062C55.8698 37.1771 55.1198 37.3125 54.2656 37.3125C53.1719 37.3125 52.1927 37.0938 51.3281 36.6562C50.4635 36.2188 49.7812 35.6198 49.2812 34.8594C48.7812 34.099 48.5312 33.2344 48.5312 32.2656C48.5312 31.3698 48.6979 30.5781 49.0312 29.8906C49.3646 29.2031 49.8594 28.625 50.5156 28.1562C51.1719 27.6771 51.9844 27.3177 52.9531 27.0781C53.9323 26.8281 55.0521 26.7031 56.3125 26.7031H59.0938ZM70.5156 23.5469V37H66.3906V20.0938H70.2969L70.5156 23.5469ZM75.6562 19.9844L75.5938 23.8281C75.3646 23.7865 75.1042 23.7552 74.8125 23.7344C74.5312 23.7135 74.2656 23.7031 74.0156 23.7031C73.3802 23.7031 72.8229 23.7917 72.3438 23.9688C71.8646 24.1354 71.4635 24.3802 71.1406 24.7031C70.8281 25.026 70.5885 25.4219 70.4219 25.8906C70.2552 26.349 70.1615 26.8698 70.1406 27.4531L69.25 27.3438C69.25 26.2708 69.3594 25.276 69.5781 24.3594C69.7969 23.4427 70.1146 22.6406 70.5312 21.9531C70.9479 21.2656 71.4688 20.7344 72.0938 20.3594C72.7292 19.974 73.4583 19.7812 74.2812 19.7812C74.5104 19.7812 74.7552 19.8021 75.0156 19.8438C75.2865 19.875 75.5 19.9219 75.6562 19.9844ZM86.7031 20.0938V23.0625H77.0156V20.0938H86.7031ZM79.6094 15.9375H83.75V32.125C83.75 32.625 83.8177 33.0104 83.9531 33.2812C84.0885 33.5521 84.2917 33.7344 84.5625 33.8281C84.8333 33.9219 85.1562 33.9688 85.5312 33.9688C85.8021 33.9688 86.0521 33.9531 86.2812 33.9219C86.5104 33.8906 86.7031 33.8594 86.8594 33.8281L86.875 36.9219C86.5312 37.0365 86.1406 37.1302 85.7031 37.2031C85.276 37.276 84.7917 37.3125 84.25 37.3125C83.3229 37.3125 82.5104 37.1562 81.8125 36.8438C81.1146 36.5208 80.5729 36.0052 80.1875 35.2969C79.8021 34.5781 79.6094 33.6302 79.6094 32.4531V15.9375Z" fill="#139AED"/>
<path d="M97.888 38.256C96.1813 38.256 94.5493 38 92.992 37.488C91.4347 36.9547 90.208 36.272 89.312 35.44L90.496 32.944C91.3493 33.6907 92.4373 34.3093 93.76 34.8C95.0827 35.2907 96.4587 35.536 97.888 35.536C99.1893 35.536 100.245 35.3867 101.056 35.088C101.867 34.7893 102.464 34.384 102.848 33.872C103.232 33.3387 103.424 32.7413 103.424 32.08C103.424 31.312 103.168 30.6933 102.656 30.224C102.165 29.7547 101.515 29.3813 100.704 29.104C99.9147 28.8053 99.04 28.5493 98.08 28.336C97.12 28.1227 96.1493 27.8773 95.168 27.6C94.208 27.3013 93.3227 26.928 92.512 26.48C91.7227 26.032 91.0827 25.4347 90.592 24.688C90.1013 23.92 89.856 22.9387 89.856 21.744C89.856 20.592 90.1547 19.536 90.752 18.576C91.3707 17.5947 92.3093 16.816 93.568 16.24C94.848 15.6427 96.4693 15.344 98.432 15.344C99.7333 15.344 101.024 15.5147 102.304 15.856C103.584 16.1973 104.693 16.688 105.632 17.328L104.576 19.888C103.616 19.248 102.603 18.7893 101.536 18.512C100.469 18.2133 99.4347 18.064 98.432 18.064C97.1733 18.064 96.1387 18.224 95.328 18.544C94.5173 18.864 93.92 19.2907 93.536 19.824C93.1733 20.3573 92.992 20.9547 92.992 21.616C92.992 22.4053 93.2373 23.0347 93.728 23.504C94.24 23.9733 94.8907 24.3467 95.68 24.624C96.4907 24.9013 97.376 25.1573 98.336 25.392C99.296 25.6053 100.256 25.8507 101.216 26.128C102.197 26.4053 103.083 26.768 103.872 27.216C104.683 27.664 105.333 28.2613 105.824 29.008C106.315 29.7547 106.56 30.7147 106.56 31.888C106.56 33.0187 106.251 34.0747 105.632 35.056C105.013 36.016 104.053 36.7947 102.752 37.392C101.472 37.968 99.8507 38.256 97.888 38.256ZM118.051 38.192C116.344 38.192 114.83 37.8187 113.507 37.072C112.184 36.3253 111.139 35.3013 110.371 34C109.603 32.6773 109.219 31.184 109.219 29.52C109.219 27.8347 109.603 26.3413 110.371 25.04C111.139 23.7387 112.184 22.7253 113.507 22C114.83 21.2533 116.344 20.88 118.051 20.88C119.736 20.88 121.24 21.2533 122.563 22C123.907 22.7253 124.952 23.7387 125.699 25.04C126.467 26.32 126.851 27.8133 126.851 29.52C126.851 31.2053 126.467 32.6987 125.699 34C124.952 35.3013 123.907 36.3253 122.563 37.072C121.24 37.8187 119.736 38.192 118.051 38.192ZM118.051 35.504C119.139 35.504 120.11 35.2587 120.963 34.768C121.838 34.2773 122.52 33.584 123.011 32.688C123.502 31.7707 123.747 30.7147 123.747 29.52C123.747 28.304 123.502 27.2587 123.011 26.384C122.52 25.488 121.838 24.7947 120.963 24.304C120.11 23.8133 119.139 23.568 118.051 23.568C116.963 23.568 115.992 23.8133 115.139 24.304C114.286 24.7947 113.603 25.488 113.091 26.384C112.579 27.2587 112.323 28.304 112.323 29.52C112.323 30.7147 112.579 31.7707 113.091 32.688C113.603 33.584 114.286 34.2773 115.139 34.768C115.992 35.2587 116.963 35.504 118.051 35.504ZM138.492 38.192C136.764 38.192 135.217 37.8187 133.852 37.072C132.508 36.3253 131.452 35.3013 130.684 34C129.916 32.6987 129.532 31.2053 129.532 29.52C129.532 27.8347 129.916 26.3413 130.684 25.04C131.452 23.7387 132.508 22.7253 133.852 22C135.217 21.2533 136.764 20.88 138.492 20.88C140.028 20.88 141.393 21.1893 142.588 21.808C143.804 22.4053 144.742 23.3013 145.404 24.496L143.068 26C142.513 25.168 141.83 24.56 141.02 24.176C140.23 23.7707 139.377 23.568 138.46 23.568C137.35 23.568 136.358 23.8133 135.484 24.304C134.609 24.7947 133.916 25.488 133.404 26.384C132.892 27.2587 132.636 28.304 132.636 29.52C132.636 30.736 132.892 31.792 133.404 32.688C133.916 33.584 134.609 34.2773 135.484 34.768C136.358 35.2587 137.35 35.504 138.46 35.504C139.377 35.504 140.23 35.312 141.02 34.928C141.83 34.5227 142.513 33.904 143.068 33.072L145.404 34.544C144.742 35.7173 143.804 36.624 142.588 37.264C141.393 37.8827 140.028 38.192 138.492 38.192ZM151.658 33.904L151.722 29.968L161.482 21.04H165.194L157.706 28.4L156.042 29.808L151.658 33.904ZM149.162 38V14.256H152.234V38H149.162ZM162.122 38L155.466 29.744L157.45 27.28L165.898 38H162.122Z" fill="#696969"/>
<g clip-path="url(#clip0_37_62)">
<path d="M177.335 27.4177C177.287 24.318 177.127 21.2134 177.265 18.1221C177.301 17.3064 178.073 16.2021 178.817 15.7931C182.69 13.6631 186.662 11.7149 190.938 9.53036C190.938 13.3709 191.035 16.8618 190.844 20.337C190.812 20.9224 189.54 21.4398 188.656 22.1039C187.587 22.5992 186.689 22.953 185.819 23.3644C182.986 24.7041 180.163 26.065 177.335 27.4177Z" fill="#139AED"/>
<path d="M199.427 28.0402C199.468 31.0294 199.661 34.0286 199.462 37.0018C199.398 37.9653 198.519 39.2371 197.652 39.721C194.084 41.7122 190.378 43.4568 186.718 45.282C186.528 45.3769 186.291 45.3785 185.762 45.4891C185.762 42.9188 185.829 40.4724 185.741 38.0315C185.67 36.0543 185.594 34.16 187.955 33.0666C189.819 32.2261 191.546 31.5421 193.25 30.8034C195.32 29.9064 197.369 28.9634 199.427 28.0402Z" fill="#139AED"/>
<path d="M199.388 27.9174C197.369 28.9634 195.32 29.9064 193.25 30.8034C191.546 31.5421 189.819 32.2261 187.966 32.9428C184.36 31.1856 180.891 29.42 177.378 27.536C180.162 26.065 182.986 24.7041 185.819 23.3644C186.689 22.953 187.586 22.5992 188.589 22.2158C191.739 23.7211 194.777 25.2183 197.799 26.7487C198.351 27.0282 198.835 27.4425 199.388 27.9174Z" fill="#1081C7"/>
<path d="M199.424 6.17587C199.536 9.34507 199.59 12.388 199.582 15.4309C199.579 16.7261 198.919 17.2038 196.531 17.7612C196.531 14.2932 196.391 10.8563 196.6 7.44074C196.684 6.07286 198.002 5.69742 199.424 6.17587Z" fill="#139AED"/>
<path d="M194.739 15.2392C194.738 16.1026 194.68 16.8013 194.751 17.4866C194.881 18.7453 194.425 19.485 192.786 19.6094C192.786 18.4938 192.786 17.3823 192.786 16.2707C192.786 14.1351 192.831 11.9981 192.769 9.86424C192.733 8.60318 193.341 8.11645 194.739 7.96634C194.739 10.394 194.739 12.7312 194.739 15.2392Z" fill="#139AED"/>
<line y1="-0.5" x2="9.83492" y2="-0.5" transform="matrix(-0.920922 0.389775 -0.389367 -0.921071 186.625 44.4661)" stroke="#139AED"/>
<path d="M176.591 48.441C176.574 47.809 177.073 47.2833 177.705 47.267C178.337 47.2507 178.862 47.7498 178.878 48.3818C178.894 49.0139 178.396 49.5395 177.764 49.5559C177.132 49.5722 176.607 49.0731 176.591 48.441Z" fill="#139AED"/>
<line y1="-0.5" x2="9.83492" y2="-0.5" transform="matrix(-0.920922 0.389775 -0.389367 -0.921071 187.723 41.2325)" stroke="#139AED"/>
<path d="M177.688 45.2074C177.672 44.5753 178.171 44.0497 178.802 44.0333C179.434 44.017 179.959 44.5161 179.976 45.1482C179.992 45.7802 179.493 46.3059 178.861 46.3222C178.23 46.3385 177.704 45.8394 177.688 45.2074Z" fill="#139AED"/>
<line y1="-0.5" x2="9.83492" y2="-0.5" transform="matrix(-0.920922 0.389775 -0.389367 -0.921071 188.832 37.672)" stroke="#139AED"/>
<path d="M178.797 41.6468C178.781 41.0148 179.28 40.4892 179.911 40.4728C180.543 40.4565 181.068 40.9556 181.085 41.5877C181.101 42.2197 180.602 42.7453 179.97 42.7617C179.339 42.778 178.813 42.2789 178.797 41.6468Z" fill="#139AED"/>
<line y1="-0.5" x2="9.83492" y2="-0.5" transform="matrix(-0.920922 0.389775 -0.389367 -0.921071 190.279 33.7963)" stroke="#139AED"/>
<path d="M180.245 37.7712C180.228 37.1391 180.727 36.6135 181.359 36.5971C181.99 36.5808 182.516 37.0799 182.532 37.712C182.548 38.3441 182.05 38.8697 181.418 38.886C180.786 38.9024 180.261 38.4032 180.245 37.7712Z" fill="#139AED"/>
</g>
<defs>
<clipPath id="clip0_37_62">
<rect width="44" height="52" fill="white" transform="translate(166)"/>
</clipPath>
</defs>
</svg>
